<svg xmlns="http://www.w3.org/2000/svg" xmlns:xlink="http://www.w3.org/1999/xlink" version="1.1"
    x="0px" y="0px" viewBox="0 0 37.006 52.5375" style="enable-background:new 0 0 37.006 42.03;"
    xml:space="preserve" fill="#F0EDE5"><g><g><g><path d="M8.966,35.041c-1.872,3.358,0.607,3.801,0.607,3.801c-1.071-0.725-0.593-1.975-0.375-2.492     c1.719,1.107,1.085,2.195,1.085,2.195C11.947,37.33,8.966,35.041,8.966,35.041z"/><path d="M14.89,35.022c-2.066,3.254,0.383,3.828,0.383,3.828c-1.027-0.781-0.475-2.004-0.227-2.507     c1.651,1.197,0.955,2.25,0.955,2.25C17.732,37.467,14.89,35.022,14.89,35.022z"/><path d="M21.148,38.761c2.034-0.478,0.268-3.715,0.268-3.715c-3.13,2.359-1.044,3.713-1.044,3.713     c-0.676-1.074,0.289-2.035,0.706-2.424C22.187,38.006,21.148,38.761,21.148,38.761z"/><path d="M25.554,38.442c-0.245-1.231,1.009-1.815,1.543-2.042c0.433,1.935-0.816,2.299-0.816,2.299     c2.082,0.224,1.601-3.396,1.601-3.396C24.09,36.483,25.554,38.442,25.554,38.442z"/><polygon points="7.201,42.03 29.412,42.03 27.648,39.826 8.612,39.826    "/></g><g><path d="M0,13.174v2.477h3.74v8.741c0,2.414,1.956,4.371,4.37,4.371h20.785c2.414,0,4.371-1.957,4.371-4.371v-8.741h3.739v-2.477     H0z M8.264,25.438c0,1.42-2.204,1.42-2.204,0v-9.344c0-1.42,2.204-1.42,2.204,0V25.438z"/><rect x="7.819" y="30.957" width="21.125" height="2.314"/></g><path d="M11.659,4.684l22.051,9.582c0.311-1.925-0.698-3.89-2.569-4.702L27.29,7.89c-0.048-1.237-1.308-2.679-3.195-3.533    c0.368-0.245,0.672-0.593,0.86-1.029c0.524-1.206-0.028-2.606-1.233-3.13c-1.206-0.524-2.607,0.029-3.13,1.233    c-0.189,0.435-0.236,0.895-0.165,1.329c-1.926-0.816-3.863-0.757-4.808,0.058l-3.54-1.538c-1.871-0.814-3.995-0.211-5.191,1.33    L9.52,3.755L11.659,4.684z"/><path d="M6.841,10.137l2.592-2.783L8.916,6.873L7.158,8.761l0.966-2.126L7.482,6.344L6.651,8.17l0.011-2.402L5.958,5.765    L5.942,9.167L4.233,6.39l-0.6,0.371l2.02,3.281c-1.008,0.129-1.85,0.787-2.233,1.69h5.194C8.29,10.97,7.64,10.38,6.841,10.137z"/><path d="M17.326,11.643c-0.289-1.582-1.591-2.776-3.156-2.776c-1.564,0-2.867,1.194-3.156,2.776H17.326z"/><polygon points="21.851,11.556 20.114,10.032 18.777,11.556   "/></g></g><text x="0" y="57.03" fill="#000000" font-size="5px" font-weight="bold" font-family="'Helvetica Neue', Helvetica, Arial-Unicode, Arial, Sans-serif">Created by Xela Ub</text><text x="0" y="62.03" fill="#000000" font-size="5px" font-weight="bold" font-family="'Helvetica Neue', Helvetica, Arial-Unicode, Arial, Sans-serif">from the Noun Project</text></svg>